<svg id="Layer_1" data-name="Layer 1" xmlns="http://www.w3.org/2000/svg" viewBox="0 0 8.65 9.55"><defs><style>.cls-1{fill:#2e3192;stroke:#e6e7e8;stroke-miterlimit:10;stroke-width:0.5px;}</style></defs><circle class="cls-1" cx="0.53" cy="0.53" r="0.28"/><circle class="cls-1" cx="0.53" cy="2.65" r="0.28"/><circle class="cls-1" cx="0.53" cy="4.77" r="0.28"/><circle class="cls-1" cx="0.53" cy="6.9" r="0.28"/><circle class="cls-1" cx="0.53" cy="9.02" r="0.28"/><circle class="cls-1" cx="3.12" cy="0.53" r="0.28"/><circle class="cls-1" cx="5.62" cy="0.53" r="0.28"/><circle class="cls-1" cx="5.62" cy="2.65" r="0.28"/><circle class="cls-1" cx="5.62" cy="4.77" r="0.28"/><circle class="cls-1" cx="5.62" cy="6.9" r="0.28"/><circle class="cls-1" cx="5.62" cy="9.02" r="0.28"/><circle class="cls-1" cx="8.12" cy="0.53" r="0.28"/><circle class="cls-1" cx="8.12" cy="2.65" r="0.28"/><circle class="cls-1" cx="8.12" cy="4.77" r="0.28"/><circle class="cls-1" cx="8.12" cy="6.9" r="0.28"/><circle class="cls-1" cx="8.12" cy="9.02" r="0.28"/><circle class="cls-1" cx="3.12" cy="2.65" r="0.28"/><circle class="cls-1" cx="3.12" cy="4.77" r="0.28"/><circle class="cls-1" cx="3.12" cy="6.9" r="0.28"/><circle class="cls-1" cx="3.12" cy="9.02" r="0.28"/></svg>