<?xml version="1.0" encoding="utf-8"?>
<!-- Generator: Adobe Illustrator 25.2.0, SVG Export Plug-In . SVG Version: 6.00 Build 0)  -->
<svg version="1.1" id="efec5e00-3a03-4cc7-a116-3276bdc4c472"
	 xmlns="http://www.w3.org/2000/svg" xmlns:xlink="http://www.w3.org/1999/xlink" x="0px" y="0px" viewBox="0 0 648.6 736.7"
	 style="enable-background:new 0 0 648.6 736.7;" xml:space="preserve">
<style type="text/css">
	.st0{fill:#E6E6E6;}
	.st1{fill:#E66D27;}
	.st2{fill:#3F3D56;}
	.st3{fill:#FF7F35;}
	.st4{fill:#FFFFFF;}
	.st5{fill:#FF710A;}
	.st6{fill:#E68B99;}
	.st7{fill:#EB8F9B;}
	.st8{fill:#2F2E41;}
</style>
<ellipse transform="matrix(1.670005e-03 -1 1 1.670005e-03 -376.9111 1065.3374)" class="st0" cx="345.1" cy="721.4" rx="5.1" ry="86.8"/>
<path class="st1" d="M329.6,540c-122.6,0-222-103.4-222-230.9c0-127.5,99.4-230.9,222-230.9s222,103.4,222,230.9
	c0,61.3-23.4,120-65,163.3C445.1,515.8,388.6,540.2,329.6,540z M329.6,79.9c-121.4,0-220.2,102.8-220.2,229.1
	s98.8,229.1,220.2,229.1c121.4,0,220.2-102.8,220.2-229.1S451.1,79.9,329.6,79.9z"/>
<rect x="188.9" y="316.5" class="st2" width="16.9" height="60.7"/>
<polygon class="st2" points="216.9,365.8 175.9,315 93.6,315.8 43.7,366.4 44.7,367.1 44.4,367.1 44.4,472.2 216.7,472.2 
	216.7,367.1 "/>
<polygon class="st3" points="175.9,315.1 124.7,377.6 124.7,472.2 216.7,472.2 216.7,365.7 "/>
<rect x="161.7" y="419.9" class="st2" width="18.8" height="17.3"/>
<rect x="161.7" y="390" class="st2" width="18.8" height="17"/>
<rect x="161.7" y="419.9" class="st4" width="18.8" height="17.3"/>
<rect x="161.7" y="390" class="st4" width="18.8" height="17"/>
<rect x="78.1" y="415.3" class="st2" width="18.8" height="17.3"/>
<rect x="78.1" y="385.4" class="st2" width="18.8" height="17"/>
<rect x="78.1" y="415.3" class="st4" width="18.8" height="17.3"/>
<rect x="78.1" y="385.4" class="st4" width="18.8" height="17"/>
<rect x="456.1" y="49.6" class="st2" width="16.9" height="60.7"/>
<polygon class="st2" points="445.1,100.2 445.1,266.1 617.5,266.1 617.5,100.2 617.1,100.2 618.1,99.5 568.2,48.9 485.9,48.1 
	445,98.9 "/>
<polygon class="st5" points="445.1,98.8 445.1,266.1 537.1,266.1 537.1,110.7 485.9,48.3 "/>
<rect x="481.4" y="153" class="st2" width="18.8" height="17.3"/>
<rect x="481.4" y="123.1" class="st2" width="18.8" height="17"/>
<rect x="481.4" y="153" class="st4" width="18.8" height="17.3"/>
<rect x="481.4" y="123.1" class="st4" width="18.8" height="17"/>
<rect x="564.9" y="148.4" class="st2" width="18.8" height="17.3"/>
<rect x="564.9" y="118.5" class="st2" width="18.8" height="17"/>
<rect x="564.9" y="148.4" class="st4" width="18.8" height="17.3"/>
<rect x="564.9" y="118.5" class="st4" width="18.8" height="17"/>
<rect x="481.4" y="213.8" class="st4" width="18.8" height="17.3"/>
<rect x="481.4" y="183.9" class="st4" width="18.8" height="17"/>
<rect x="564.9" y="209.2" class="st4" width="18.8" height="17.3"/>
<rect x="564.9" y="179.3" class="st4" width="18.8" height="17"/>
<ellipse class="st6" cx="339.9" cy="214" rx="27.1" ry="28.2"/>
<path class="st7" d="M312.1,265l46.1-0.8c-4-11.4-5.7-22-2.9-31.2l-35.1-3.8C324.9,241.1,322.2,253,312.1,265z"/>
<path class="st6" d="M271.8,453.9l7.7,21.2c2.4,6.7-0.8,14.1-7.2,16.6c-0.9,0.4-1.9,0.6-2.8,0.7l0,0c-6.8,0.9-12.9-4.2-13.8-11.2
	c-0.1-0.7-0.1-1.4-0.1-2.1l0.9-24.5L263,329l27.1,8.4L271.8,453.9z"/>
<polygon class="st8" points="300.3,690 322.3,687.7 342.1,488.1 369.9,691.5 390.4,690.7 395.5,467.6 297.4,467.6 "/>
<path class="st8" d="M371.3,203.3c0,0-7.3,16.8-12.4,17.5c-5.1,0.8-13.9,9.1-12.4,12.9c1.5,3.8,0.7,15.2-13.9,13.7
	c-14.6-1.5-13.9-3-13.9-3s-23.4-46.5,0.7-58.6C343.5,173.6,364.7,182.7,371.3,203.3z"/>
<path class="st8" d="M391.5,679.8l-0.9,19.2c0,0,13.4,21.8-3.3,21.8c-0.2,0,0.2,0,0,0c-12.1,0-23,5.6-21.6-6.9l2-17.6l3.5-19.2
	L391.5,679.8z"/>
<path class="st8" d="M300.5,679.8l0.9,19.2c0,0-13.4,21.8,3.3,21.8c0.2,0-0.2,0,0,0c12.1,0,23,5.6,21.6-6.9l-2-17.6l-3.5-19.2
	L300.5,679.8z"/>
<path class="st0" d="M289.4,476.7l109.1-5.3c-20.3-67.9-20.5-123.5,5.1-174.7c0-10.9-6.3-20.8-15.9-25.2L356,257.4l-40.3,2.3
	l-26.6,15.2c-10.6,6.1-17,17.9-16.3,30.5C296.1,363.1,297.4,420.1,289.4,476.7z"/>
<path class="st0" d="M309.1,344.2l-60.8-10.7l10-25.9c7.1-18.4,21.6-32.7,39.7-39l6-2.1L309.1,344.2z"/>
<path class="st6" d="M499.7,286.1l18.7-8.1c7.2-3.1,10.6-11.7,7.6-19.2c-0.3-0.8-0.7-1.5-1.1-2.2l0,0c-4.2-6.9-12.9-8.9-19.4-4.6
	c-1.2,0.8-2.3,1.7-3.2,2.9l-13.9,16.8L434,312.3l-37-16l-4.4,31.9l46.2,12.5L499.7,286.1z"/>
<path class="st0" d="M401.1,340.6l30.1-29.5l-8-10.1c-7.1-18.4-23.5-26-41.6-32.4l-6-2.1l-4.7,50.1L401.1,340.6z"/>
</svg>
