<svg id="Layer_1" data-name="Layer 1" xmlns="http://www.w3.org/2000/svg" viewBox="0 0 97.85 66.16"><defs><style>.cls-1{fill:#d1cde2;}.cls-2{fill:#1f1e2b;}.cls-3{fill:#f47b27;}.cls-4{fill:#fff;}.cls-5{fill:#a0626b;}.cls-6{fill:#3c3a52;}.cls-7{fill:#302e41;}.cls-8{fill:#231f20;}.cls-9{fill:#e6e6e5;}.cls-10{fill:#403e56;}.cls-11{fill:#302d40;}.cls-12{fill:#262433;}</style></defs><ellipse class="cls-1" cx="39.36" cy="22.89" rx="39.36" ry="1.62"/><path class="cls-1" d="M17.4,89.9l4.89-7L17.4,90.66v.8c-.35,0-.69,0-1,0,0-.18.42-10.17.4-10.35,0,0,0-1,0-1L11.7,72.42l5.11,7,0,.2.3-7.76-4.39-7.94,4.43,6.58c0-.11.21-16,.21-16.13s.09,12.67.1,12.73L21.67,62l-4.2,6.17,0,6.94,3.9-6.71c-4.87,9.79-3.79,6.36-3.91,11.59l5.66-9.35-5.67,10.7Z" transform="translate(-1.3 -27.11)"/><path class="cls-1" d="M96.78,91.15l2-2.93-2,3.25v.33h-.43c0-.08.18-4.24.17-4.32s0-.39,0-.41l-2.13-3.2,2.13,2.9v.09l.12-3.24L94.83,80.3,96.68,83s.08-6.68.09-6.72,0,5.28,0,5.31l1.75-2.12L96.8,82.08V85l1.63-2.79c-2,4.08-1.58,2.65-1.63,4.83l2.36-3.9-2.36,4.46Z" transform="translate(-1.3 -27.11)"/><ellipse class="cls-1" cx="56.26" cy="64.54" rx="41.32" ry="1.62"/><rect class="cls-2" x="29.13" y="35.41" width="47.18" height="28.13"/><path class="cls-3" d="M42.1,62.52a11.28,11.28,0,0,1-11.28,11.1h-.39V62.52Z" transform="translate(-1.3 -27.11)"/><path class="cls-3" d="M56.32,90.65H51.83a2.39,2.39,0,0,1,4.49,0Z" transform="translate(-1.3 -27.11)"/><path class="cls-3" d="M77.6,76.1v9.47a4.74,4.74,0,0,1,0-9.47Z" transform="translate(-1.3 -27.11)"/><path class="cls-4" d="M39.17,72.74H68.94a1.39,1.39,0,0,1,1.38,1.39h0a1.38,1.38,0,0,1-1.38,1.39H39.17a1.39,1.39,0,0,1-1.39-1.39h0A1.4,1.4,0,0,1,39.17,72.74Z" transform="translate(-1.3 -27.11)"/><path class="cls-4" d="M39.17,78.22H68.94a1.38,1.38,0,0,1,1.38,1.39h0A1.38,1.38,0,0,1,68.94,81H39.17a1.39,1.39,0,0,1-1.39-1.39h0A1.39,1.39,0,0,1,39.17,78.22Z" transform="translate(-1.3 -27.11)"/><path class="cls-4" d="M60.31,83.7h8.63a1.38,1.38,0,0,1,1.38,1.39h0a1.38,1.38,0,0,1-1.38,1.39H60.31a1.39,1.39,0,0,1-1.39-1.39h0A1.39,1.39,0,0,1,60.31,83.7Z" transform="translate(-1.3 -27.11)"/><path class="cls-5" d="M85.08,52.05a2.38,2.38,0,0,1,1.37,2.16c.07,1.66-.36,6.27-.36,6.27s1.59,2.3.36,3-1.37-2.59-1.37-2.59L83.64,54S84.51,52,85.08,52.05Z" transform="translate(-1.3 -27.11)"/><path class="cls-5" d="M71.82,57.38s-3.1,2-3.24.43.94-7.78.94-7.78.14-2.67,1.65-2-.43,2.88-.43,2.88l.22,5,1.44-.07Z" transform="translate(-1.3 -27.11)"/><path class="cls-6" d="M76.79,59.25s-9.51-3.53-9,.58a37.54,37.54,0,0,0,2.95,9.3l.87,1.37h1.8l-1.16-7.43s4.11,2.31,5.34,1.95c0,0,1.58,10.59,2.16,11.39s1.59,10.37,1.59,10.37l.93,1.16h1.8V71.72s3.1-10.09.72-10.59S76.79,59.25,76.79,59.25Z" transform="translate(-1.3 -27.11)"/><path class="cls-7" d="M71.39,69.56s-.43-.79-1.15,0a12.2,12.2,0,0,1-2.45,1.73s-3.75.86-.72,1.58,3.38,0,3.38,0l.94.29c.43.15,3.24-.36,3.24-.79s-.95-3-1.34-2.63S71.39,69.56,71.39,69.56Z" transform="translate(-1.3 -27.11)"/><path class="cls-7" d="M82.41,87.22s-1.06-.87-1.31-.62-1.57,1.94-1.57,1.94-3.5,2.68-.31,3.12,3-.75,3-.75h1c.13,0,1.82-.75,1.75-1.06s-.81-2.86-1.06-2.68A4.34,4.34,0,0,1,82.41,87.22Z" transform="translate(-1.3 -27.11)"/><circle class="cls-5" cx="71.46" cy="19.75" r="2.45"/><path class="cls-5" d="M74.49,46.57s1.87,1.58,3.17,1.58-1.87,3-1.87,3L73,48.59Z" transform="translate(-1.3 -27.11)"/><path class="cls-8" d="M75.21,51.11l-.06-.57A15.67,15.67,0,0,1,77,47.79a1.82,1.82,0,0,1,.72-.21s1.44-1.52,3-.72,5.33,5.83,5.33,5.83-2.66.22-2.3,2.31c0,0,2.66,6.85,1.94,6.92s-2.88-.43-5.12.58-3.24.36-3.24.36l-1.15-3.75s-2.16-1.23-2.09-2.31L71,58.21l.29-2.67,1.91-2.2S72.83,53.06,75.21,51.11Z" transform="translate(-1.3 -27.11)"/><path class="cls-7" d="M70.51,47.12a.88.88,0,0,1-.36.24.3.3,0,0,1-.37-.14l.1-.13-.31-.2.14-.16-.25-.27.19-.15L69.28,46a6.69,6.69,0,0,1,1.78-2.13,2.47,2.47,0,0,1,2.63-.22,2.84,2.84,0,0,1,.93,1.1,6.3,6.3,0,0,1,.94,2.66c-.29-.29-.72-.45-1-.73a2.17,2.17,0,0,0-.44-.36,3.76,3.76,0,0,0-1-.27,1.46,1.46,0,0,1-.7-.38c-.26-.22-.27-.13-.53.12Z" transform="translate(-1.3 -27.11)"/><ellipse class="cls-9" cx="13.66" cy="17.45" rx="1.55" ry="3.15"/><path class="cls-10" d="M15.1,49.72a25.51,25.51,0,0,1,0-7.45l.12,0a25.24,25.24,0,0,0,0,7.41Z" transform="translate(-1.3 -27.11)"/><rect class="cls-10" x="14.85" y="44.25" width="1.58" height="0.12" transform="translate(-20.35 -14.49) rotate(-28.14)"/><rect class="cls-10" x="14.11" y="43.89" width="0.12" height="1.58" transform="translate(-33.21 8.98) rotate(-61.84)"/><rect class="cls-11" x="42.29" y="0.21" width="2.53" height="8.77"/><polygon class="cls-12" points="46.49 7.33 40.33 0 27.97 0.11 20.47 7.42 20.62 7.52 20.57 7.52 20.57 22.71 46.47 22.71 46.47 7.52 46.49 7.33"/><polygon class="cls-3" points="40.34 0.02 32.64 9.04 32.64 22.71 46.47 22.71 46.47 7.32 40.34 0.02"/><rect class="cls-10" x="38.2" y="15.15" width="2.82" height="2.5"/><rect class="cls-10" x="38.2" y="10.83" width="2.82" height="2.46"/><rect class="cls-4" x="38.2" y="15.15" width="2.82" height="2.5"/><rect class="cls-4" x="38.2" y="10.83" width="2.82" height="2.46"/><path class="cls-9" d="M32,49.38a1.15,1.15,0,0,1,1.31-1.13" transform="translate(-1.3 -27.11)"/><circle class="cls-3" cx="30.37" cy="20.44" r="0.62"/><rect class="cls-9" x="30.27" y="21.48" width="0.18" height="1.23"/><ellipse class="cls-3" cx="9.94" cy="12.59" rx="3.02" ry="6.17"/><path class="cls-10" d="M11.58,49.78a50.24,50.24,0,0,1,0-14.55l.12,0a50,50,0,0,0,0,14.51Z" transform="translate(-1.3 -27.11)"/><rect class="cls-10" x="11.04" y="39.15" width="3.1" height="0.12" transform="translate(-18.3 -16.54) rotate(-28.14)"/><rect class="cls-10" x="9.65" y="38.39" width="0.12" height="3.1" transform="translate(-31.39 2.54) rotate(-61.84)"/><ellipse class="cls-3" cx="17.1" cy="8.88" rx="4.14" ry="8.44"/><path class="cls-10" d="M18.88,49.78a69,69,0,0,1,0-19.9l.12,0a68.76,68.76,0,0,0,0,19.86Z" transform="translate(-1.3 -27.11)"/><rect class="cls-10" x="18.13" y="35.26" width="4.24" height="0.12" transform="translate(-15.56 -13.39) rotate(-28.14)"/><rect class="cls-10" x="16.24" y="34.2" width="0.12" height="4.24" transform="translate(-24.71 6.44) rotate(-61.84)"/><rect class="cls-10" x="4.05" y="22.61" width="44.63" height="0.11"/><rect class="cls-10" x="25.64" y="14.49" width="2.82" height="2.5"/><rect class="cls-10" x="25.64" y="10.16" width="2.82" height="2.46"/><rect class="cls-4" x="25.64" y="14.49" width="2.82" height="2.5"/><rect class="cls-4" x="25.64" y="10.16" width="2.82" height="2.46"/></svg>