<?xml version="1.0" encoding="utf-8"?>
<!-- Generator: Adobe Illustrator 25.2.0, SVG Export Plug-In . SVG Version: 6.00 Build 0)  -->
<svg version="1.1" id="ad54afe5-9512-4a17-9648-a0d962bcfa3f"
	 xmlns="http://www.w3.org/2000/svg" xmlns:xlink="http://www.w3.org/1999/xlink" x="0px" y="0px" viewBox="0 0 871.2 793.8"
	 style="enable-background:new 0 0 871.2 793.8;" xml:space="preserve">
<style type="text/css">
	.st0{fill:#FFFFFF;}
	.st1{fill:#3F3D56;}
	.st2{fill:#F2F2F2;}
	.st3{fill:#F97B26;}
	.st4{fill:#CCCCCC;}
	.st5{fill:#CBCBCB;}
	.st6{fill:#9F616A;}
	.st7{fill:#1F1F1F;}
	.st8{fill:#2F2E41;}
	.st9{fill:#2B2B2B;}
	.st10{opacity:0.1;enable-background:new    ;}
	.st11{fill:#D0CDE1;}
	.st12{fill:#212121;}
	.st13{fill:#FFB8B8;}
	.st14{opacity:0.2;enable-background:new    ;}
</style>
<path class="st0" d="M531.5,529.2H339.7c-1.4,0-2.5-1.1-2.5-2.5v-211c0-1.4,1.1-2.5,2.5-2.5h191.8c1.4,0,2.5,1.1,2.5,2.5v211
	C534,528,532.9,529.2,531.5,529.2z"/>
<path class="st1" d="M531.5,529.2H339.7c-1.4,0-2.5-1.1-2.5-2.5v-211c0-1.4,1.1-2.5,2.5-2.5h191.8c1.4,0,2.5,1.1,2.5,2.5v211
	C534,528,532.9,529.2,531.5,529.2z M339.7,314.1c-0.8,0-1.5,0.7-1.5,1.5v211c0,0.8,0.7,1.5,1.5,1.5h191.8c0.8,0,1.5-0.7,1.5-1.5
	v-211c0-0.8-0.7-1.5-1.5-1.5L339.7,314.1z"/>
<path class="st2" d="M422.4,393.6h-47.6c-1.4,0-2.5-1.1-2.5-2.5v-47.6c0-1.4,1.1-2.5,2.5-2.5h47.6c1.4,0,2.5,1.1,2.5,2.5V391
	C425,392.4,423.8,393.6,422.4,393.6z M374.9,341.9c-0.8,0-1.5,0.7-1.5,1.5V391c0,0.8,0.7,1.5,1.5,1.5h47.6c0.8,0,1.5-0.7,1.5-1.5
	v-47.6c0-0.8-0.7-1.5-1.5-1.5H374.9z"/>
<path class="st3" d="M408.8,399.4h-47.6c-1.3,0-2.3-1-2.3-2.3v-47.6c0-1.3,1-2.3,2.3-2.3h47.6c1.3,0,2.3,1,2.3,2.3v47.6
	C411,398.4,410,399.4,408.8,399.4z"/>
<path class="st4" d="M510,422.7H361.2c-1.3,0-2.3-1-2.3-2.3c0-1.3,1-2.3,2.3-2.3c0,0,0,0,0,0H510c1.3,0,2.3,1,2.3,2.3
	C512.3,421.6,511.2,422.7,510,422.7L510,422.7L510,422.7z"/>
<path class="st4" d="M474,438.3H361.2c-1.3,0-2.3-1-2.3-2.3c0-1.3,1-2.3,2.3-2.3c0,0,0,0,0,0H474c1.3,0,2.3,1,2.3,2.3
	C476.3,437.3,475.3,438.3,474,438.3L474,438.3z"/>
<path class="st3" d="M509.5,365h-65.8c-1.3,0-2.3-1-2.3-2.3c0-1.3,1-2.3,2.3-2.3h65.8c1.3,0,2.3,1,2.3,2.3
	C511.8,363.9,510.7,365,509.5,365C509.5,365,509.5,365,509.5,365L509.5,365z"/>
<path class="st3" d="M493,380.7h-49.4c-1.3,0-2.3-1-2.3-2.3c0-1.3,1-2.3,2.3-2.3H493c1.3,0,2.3,1,2.3,2.3
	C495.3,379.6,494.3,380.7,493,380.7L493,380.7z"/>
<path class="st4" d="M510,454H361.2c-1.3,0-2.3-1-2.3-2.3c0-1.3,1-2.3,2.3-2.3H510c1.3,0,2.3,1,2.3,2.3C512.3,453,511.2,454,510,454
	C510,454,510,454,510,454L510,454z"/>
<path class="st4" d="M474,469.7H361.2c-1.3,0-2.3-1-2.3-2.3c0-1.3,1-2.3,2.3-2.3H474c1.3,0,2.3,1,2.3,2.3
	C476.3,468.7,475.3,469.7,474,469.7C474.1,469.7,474,469.7,474,469.7z"/>
<path class="st4" d="M510,485.4H361.2c-1.3,0-2.3-1-2.3-2.3c0-1.3,1-2.3,2.3-2.3c0,0,0,0,0,0H510c1.3,0,2.3,1,2.3,2.3
	C512.2,484.4,511.2,485.4,510,485.4z"/>
<path class="st4" d="M510,501.1H361.2c-1.3,0-2.3-1-2.3-2.3s1-2.3,2.3-2.3H510c1.3,0,2.3,1,2.3,2.3
	C512.2,500.1,511.2,501.1,510,501.1z"/>
<path class="st0" d="M297.2,622.7c0,60.8-37.2,115.5-93.8,137.8c-2.2,0.9-4.4,1.7-6.6,2.4c-2.5,0.9-5,1.6-7.5,2.3
	c-1.8,0.5-3.5,1-5.3,1.4c-27,6.5-55.3,5.3-81.6-3.5c-2.1-0.7-4.1-1.4-6.1-2.2c-2.7-1-5.4-2.2-8.1-3.4c-0.2-0.1-0.4-0.2-0.6-0.3
	c-1-0.5-2.1-1-3.1-1.5h0c-1.4-0.7-2.8-1.4-4.2-2.1c-3.2-1.7-6.3-3.5-9.3-5.4c-1.6-1-3.1-2-4.7-3c-67.7-45.7-85.5-137.7-39.8-205.4
	c21.6-32,55-54.3,92.8-62.1c2.6-0.5,5.2-1,7.9-1.4c1.7-0.3,3.4-0.5,5-0.7c1.2-0.1,2.4-0.3,3.6-0.4h0c3.3-0.3,6.6-0.5,10-0.6
	c0.5,0,0.9,0,1.4,0c0.3,0,0.5,0,0.8,0h0c0.4,0,0.8,0,1.2,0c1.7,0,3.4,0,5,0.1c3.7,0.1,7.3,0.4,10.9,0.8c2.1,0.2,4.1,0.5,6.2,0.8
	c0.2,0,0.5,0.1,0.7,0.1c0.7,0.1,1.4,0.2,2,0.3c1.4,0.2,2.9,0.5,4.3,0.8c1.3,0.3,2.7,0.5,4,0.8c4.9,1.1,9.8,2.5,14.5,4.1
	c32.3,11.1,59.9,32.9,77.9,61.9c0.5,0.8,1,1.6,1.5,2.5c0.4,0.6,0.7,1.2,1.1,1.9c0.1,0.2,0.3,0.4,0.4,0.6c0.1,0.1,0.1,0.2,0.2,0.4
	c0.7,1.2,1.3,2.3,1.9,3.5C291.3,574.6,297.2,598.5,297.2,622.7z"/>
<path class="st5" d="M149.2,771.7c-16,0-32-2.6-47.2-7.6c-2-0.7-4-1.4-6.2-2.2c-2.8-1.1-5.5-2.2-8.1-3.4c-0.2-0.1-0.4-0.2-0.6-0.3
	c-1-0.5-2-0.9-3-1.4l-0.1-0.1c-1.4-0.7-2.8-1.4-4.2-2.1c-3.2-1.7-6.3-3.5-9.4-5.4c-1.6-1-3.2-2-4.7-3.1
	c-68.2-46-86.1-138.6-40.1-206.8c21.8-32.3,55.3-54.7,93.5-62.5c2.6-0.5,5.3-1,8-1.4c1.6-0.2,3.3-0.5,5.1-0.7
	c1.2-0.1,2.4-0.3,3.7-0.4c3.3-0.3,6.7-0.5,10-0.6l1.7,0c0.2,0,0.4,0,0.6,0c0.4,0,0.8,0,1.2,0c1.7,0,3.4,0,5.1,0.1
	c3.7,0.1,7.4,0.4,11,0.8c1.9,0.2,3.9,0.5,6.2,0.8l1,0.2c0.6,0.1,1.2,0.2,1.8,0.3c1.3,0.2,2.7,0.5,4.3,0.8c1.3,0.3,2.7,0.6,4,0.9
	c5,1.1,9.8,2.5,14.6,4.2c32.5,11.2,60.2,33.2,78.5,62.3c0.5,0.8,1,1.6,1.5,2.5c0.4,0.6,0.7,1.2,1.1,1.9c0.1,0.2,0.2,0.4,0.4,0.6
	c0.1,0.1,0.1,0.2,0.2,0.3l0.1,0.1c0.6,1.1,1.3,2.2,1.9,3.5c38.6,72.7,10.9,162.9-61.8,201.5c-5,2.6-10.1,5-15.3,7
	c-2.1,0.8-4.4,1.7-6.6,2.4c-2.5,0.9-5,1.6-7.6,2.4c-1.8,0.5-3.6,1-5.4,1.4C172.7,770.3,161,771.7,149.2,771.7z M84.6,754.8
	L84.6,754.8l0.2,0.1c1,0.5,2,1,3.1,1.5c0.2,0.1,0.4,0.2,0.5,0.2c2.6,1.2,5.3,2.3,8.1,3.4c2.2,0.8,4.2,1.5,6.1,2.2
	c26.2,8.7,54.2,9.9,81.1,3.5c1.8-0.4,3.6-0.9,5.3-1.4c2.5-0.7,5-1.5,7.5-2.3c2.3-0.8,4.5-1.6,6.6-2.4
	c56.4-21.9,93.4-76.3,93.2-136.8v0c0-24-5.9-47.7-17.1-68.9c-0.7-1.3-1.3-2.4-1.9-3.5l-0.1-0.1c0-0.1-0.1-0.1-0.1-0.2l-0.1-0.1
	c-0.1-0.2-0.2-0.4-0.3-0.6c-0.4-0.7-0.7-1.3-1.1-1.9c-0.5-0.8-1-1.6-1.5-2.4c-18-28.8-45.3-50.5-77.4-61.5c-4.7-1.6-9.6-3-14.4-4.1
	c-1.3-0.3-2.6-0.6-4-0.8c-1.6-0.3-3-0.6-4.3-0.8c-0.6-0.1-1.2-0.2-1.8-0.3l-1-0.2c-2.2-0.3-4.2-0.6-6.1-0.8
	c-3.6-0.4-7.2-0.6-10.8-0.8c-1.6-0.1-3.3-0.1-5-0.1c-0.4,0-0.8,0-1.2,0c-0.2,0-0.4,0-0.5,0l-1.6,0c-3.3,0.1-6.6,0.3-9.9,0.6l-0.1,0
	c-1.1,0.1-2.3,0.2-3.5,0.4c-1.8,0.2-3.5,0.4-5,0.7c-2.6,0.4-5.3,0.9-7.9,1.4C39.9,495-11.3,572.7,5.1,652.2
	c7.7,37.6,29.9,70.7,61.7,92.2c1.5,1,3.1,2.1,4.6,3c3,1.9,6.1,3.7,9.3,5.3C82,753.4,83.3,754.1,84.6,754.8z"/>
<path class="st6" d="M275.8,590.5c-6.1,8-17.5,9.5-25.5,3.4c-0.8-0.7-1.6-1.4-2.4-2.2l-39,14.1l-14.4-21.6L250,565
	c7.9-6.3,19.4-5,25.7,2.9C280.9,574.5,281,583.8,275.8,590.5z"/>
<polygon class="st7" points="153.8,592.5 234.3,565.9 247.8,595.5 172.8,618.5 "/>
<path class="st8" d="M183.9,766.6c-27,6.5-55.3,5.3-81.6-3.5l1.8-17l1.7-15.9l25-38.7l8-12.4l33.1,12l3.4,21.3l5.4,33.9L183.9,766.6
	z"/>
<path class="st8" d="M203.4,760.4c-2.2,0.9-4.4,1.7-6.6,2.4c-2.5,0.9-5,1.6-7.5,2.3c-1.8,0.5-3.5,1-5.3,1.4
	c-27,6.5-55.3,5.3-81.6-3.5c-2.1-0.7-4.1-1.4-6.1-2.2c0.3,5.9,0.1,11.9-0.5,17.8c-2.9-6.9-5.4-14-7.5-21.1c-0.1-0.5-0.3-1-0.4-1.4
	c-0.7-2.4-1.3-4.7-1.9-6.9c-0.6-2.5-1.2-4.8-1.6-7c-1.8-8.4-2.4-13.5-2.4-13.5l19.6-40.6l3.9,0.4l1.6,0.2l9.8,1.1l14.2,1.6l23.1,2.6
	l21.4,18.2l19.2,16.3c0,0,1.6,5.4,4.1,14.5C200,747.9,201.6,753.8,203.4,760.4z"/>
<ellipse transform="matrix(7.088903e-02 -0.9975 0.9975 7.088903e-02 -323.2447 564.4515)" class="st6" cx="141.4" cy="455.7" rx="34.6" ry="34.6"/>
<path class="st9" d="M165.5,528.6c0,0-8.3-25.7-27.9-25.7c-4.9,0-12.8,0.4-19.2,4.6c-25.8,16.8-41.5,45.5-42.7,76.3l-6,153.9
	c0,0,33.1,12,45.1,7.5s24.1-34.6,24.1-34.6s-3,40.6,9,39.1s57.1-4.5,58.7-10.5s-23-135.4-23-135.4L165.5,528.6z"/>
<path class="st8" d="M124.6,465.9c3.1-0.2,6.1,0.9,9.2,1.3c11,1.5,22.5-6.5,24.9-17.4c0.2-1.4,0.6-2.8,1.3-4.2
	c1.7-2.8,5.6-3.3,8.7-2.7s6.2,2.1,9.4,2.3c5,0.3,9.8-2.8,12.5-7.1s3.4-9.5,3.1-14.5l-2.4,2.5c-1-2.1-1.4-4.4-1.1-6.6
	c-2.6-0.7-5.3,0-7.3,1.9c-2.1,0.2-0.5-3.9-2.1-5.4c-0.8-0.5-1.7-0.6-2.6-0.5c-4.5,0-8.1-3.4-11.7-6.2c-6.2-4.8-13.3-8.1-21-9.6
	c-5.1-1-10.5-1.2-15.3,0.7c-4,1.6-7.3,4.4-10.3,7.3c-7.6,7.3-14.2,15.8-17.4,25.8c-2.6,8.2-2.6,16.9-0.2,25.2
	c1.3,4.3,5.1,18.9,10.7,19.2C120,478.6,115.8,466.4,124.6,465.9z"/>
<polygon class="st10" points="139.2,574.2 103.7,626.1 92.4,746.8 "/>
<ellipse transform="matrix(0.5808 -0.814 0.814 0.5808 -320.1375 461.9611)" class="st1" cx="288.5" cy="541.8" rx="2.6" ry="1"/>
<path class="st3" d="M242,598.4L242,598.4c-2.1-1.5-2.6-4.4-1.1-6.5l0,0l40.3-56.5c1.5-2.1,4.4-2.6,6.5-1.1l0,0L242,598.4L242,598.4
	z"/>
<path class="st8" d="M243.7,604l-2.3-1.7c-1.7-1.2-2.1-3.5-0.9-5.2l0,0l45.9-64.3c1-1.4,3-1.8,4.4-0.7l0,0l2.8,2l0,0L243.7,604
	L243.7,604L243.7,604z"/>
<rect x="281.3" y="541.2" transform="matrix(0.5808 -0.814 0.814 0.5808 -322.0538 458.3212)" class="st11" width="5.3" height="1.3"/>
<rect x="277.1" y="547.1" transform="matrix(0.5808 -0.814 0.814 0.5808 -328.6383 457.3652)" class="st11" width="5.3" height="1.3"/>
<path class="st6" d="M100.5,786.1c5.9-8.1,4-19.5-4.1-25.4c-0.9-0.6-1.8-1.2-2.8-1.6l2.2-41.5l-24.9-7.5l-2.3,58.6
	c-3.8,9.4,0.8,20,10.2,23.8C86.6,795.7,95.6,793,100.5,786.1z"/>
<path class="st12" d="M100.3,752h-36l-9.9-110.8l0-0.1l33.7-98.9c4.7-13.8,19.8-21.3,33.6-16.5s21.3,19.8,16.5,33.6
	c-0.5,1.5-1.2,2.9-1.9,4.3L96.8,635L100.3,752z"/>
<path class="st0" d="M870.2,271.5c0.1,81.8-66.2,148.2-148,148.3c-81.8,0.1-148.2-66.2-148.3-148c-0.1-80.6,64.3-146.5,144.9-148.2
	c0.5,0,0.9,0,1.4,0c0.7,0,1.3,0,2,0c1.7,0,3.4,0,5,0.1c3.7,0.1,7.3,0.4,10.9,0.8c2.1,0.2,4.1,0.5,6.2,0.8c0.2,0,0.5,0.1,0.7,0.1
	c8.5,1.3,16.8,3.3,24.9,6.1C829.9,151.8,870.2,208.1,870.2,271.5z"/>
<path class="st5" d="M722,420.8c-82.2,0-149.1-66.8-149.1-149c-0.1-81.1,64.7-147.5,145.9-149.2l1.4,0c2.4,0,4.8,0,7.1,0.1
	c3.7,0.1,7.4,0.4,11,0.8c1.9,0.2,3.9,0.5,6.2,0.8l0.7,0.1c72.6,11.3,126.1,73.8,126,147.2v0c0.1,82.2-66.8,149.2-149,149.3
	L722,420.8z M722.2,124.5c-0.7,0-1.3,0-2,0l-1.4,0c-79.4,1.7-144,67.8-143.9,147.2c0.1,81.1,66.1,147,147.1,147h0.1
	c81.1-0.1,147.1-66.1,147-147.3v0c0.1-72.5-52.7-134.2-124.3-145.3l-0.7-0.1c-2.2-0.3-4.2-0.6-6.1-0.8c-3.6-0.4-7.2-0.6-10.8-0.8
	C725.5,124.5,723.8,124.5,722.2,124.5L722.2,124.5z"/>
<ellipse transform="matrix(0.535 -0.8449 0.8449 0.535 47.1834 641.8683)" class="st1" cx="606.7" cy="278.1" rx="1" ry="2.6"/>
<path class="st3" d="M604.6,270.9L604.6,270.9c1.4-2.2,4.2-2.8,6.4-1.4l0,0l58.6,37.1c2.2,1.4,2.8,4.2,1.4,6.4v0l0,0L604.6,270.9z"
	/>
<path class="st8" d="M599.1,272.8l1.8-2.9c0.9-1.5,2.9-1.9,4.4-1l0,0l66.7,42.3c1.7,1.1,2.3,3.4,1.2,5.2v0l-1.5,2.4l0,0L599.1,272.8
	L599.1,272.8z"/>
<rect x="610.2" y="273.8" transform="matrix(0.535 -0.8449 0.8449 0.535 50.5244 644.6266)" class="st11" width="1.3" height="5.3"/>
<rect x="616.3" y="277.7" transform="matrix(0.535 -0.8449 0.8449 0.535 50.0946 651.6211)" class="st11" width="1.3" height="5.3"/>
<circle class="st13" cx="722.6" cy="97.1" r="41.7"/>
<path class="st8" d="M762.2,414c-33.8,9.4-69.8,6.6-101.8-8l3.2-85.5l0.2-6.6l0.1-2.2l0.1-3.2l0.1-2c0,0,0.1,0,0.4,0
	c0.7,0,2.3-0.2,4.5-0.3c2.6-0.1,6.1-0.3,10.2-0.5c1,0,2-0.1,3-0.1c21.5-0.8,55.2-1,59.6,5.5l0.6,3.8l0.9,6.2l1.8,12.6
	C745.2,333.7,766.1,375.3,762.2,414z"/>
<path class="st4" d="M772.8,198.4l-8.2,75.8L749,308.7l-5.8,12.8l-83.8-1l8.6-58.4c-12.2-31.5,16.8-44.2,16.8-44.2l30-61.5
	c0,0,8-4,28.9-5c19.4-0.9,4.1,2,4.1,2C773.2,150.8,772.8,198.4,772.8,198.4z"/>
<path class="st14" d="M747.6,278.2L732,312.7c-5-9.4-8.8-20-8.8-26.3c0-17.3,17.3-8.1,17.3-8.1s-14-76.4-14-99.3
	C726.4,163.8,739.1,231.2,747.6,278.2z"/>
<path class="st8" d="M770.6,71.7c-2.7-6.6-6.9-12.5-12.3-17.3c2.2-0.7,4-2.3,5.1-4.3c1.6-3.2,0.8-7.2-1.4-10c-2-2.4-4.6-4.2-7.5-5.4
	c2.1,1,4.5,1.4,6.8,1.3c2.8-0.3,5.7-2.5,5.5-5.3c-0.2-2.6-2.7-4.4-5.1-5.8c-1.5-0.9-3-1.8-4.5-2.7c0.4-0.9,0.8-1.8,1.2-2.7
	c2.7-6.8,1.1-14.5-4-19.7c4.9,5,3.7,12.8-1.2,19.1c-0.2,0.2-0.3,0.4-0.5,0.6c-1-0.6-1.9-1.1-2.9-1.7c-2.4-1.4-4.9-2.9-7.7-3.2
	s-6,0.8-7.1,3.3c-1.2,2.7,0.2,6.1-1.4,8.6c-1.4,2.2-4.4,2.6-7.1,2.5c-2.6-0.1-5.4-0.5-7.8,0.6c-3.3,1.6-4.3,6-2.9,9.3
	c0.6,1.4,1.6,2.6,2.8,3.6c-7,1-13.8,3-20.6,5.2c-8,2.5-16.1,5.1-22.7,10.2c-6.7,5-11.7,13-11.1,21.3s8.9,21.4,17.1,20.1l1.3-3.9
	c10.2-4.9,22.4-2.7,30.3,5.4c0.1-5.2,8.1-7,12-3.6s4.7,9.2,5,14.4c0.3,5.2,0.6,10.9,4,14.9c3.3,3.8,8.9,5,13.8,3.8
	c4.9-1.1,9.1-4.2,12.6-7.8C773.3,109.4,777.4,88.6,770.6,71.7z"/>
<path class="st13" d="M637.7,315.5c8.1,5.9,19.5,4,25.4-4.1c0.6-0.9,1.2-1.8,1.6-2.8l113.5,2.2l7.5-24.9l-130.6-2.3
	c-9.4-3.8-20,0.8-23.8,10.2C628.2,301.7,630.8,310.6,637.7,315.5L637.7,315.5z"/>
<path class="st4" d="M748,149.3c0,0-26.4,2-26.4,24.9c0,22.9,23.9,104.1,23.9,104.1s-17.3-9.1-17.3,8.1s29,67.6,32,34
	c0,0,43.7,21.3,41.1-18.8s-30-125-30-125S768.3,147.7,748,149.3z"/>
</svg>
