<?xml version="1.0" encoding="utf-8"?>
<!-- Generator: Adobe Illustrator 25.2.0, SVG Export Plug-In . SVG Version: 6.00 Build 0)  -->
<svg version="1.1" id="efec5e00-3a03-4cc7-a116-3276bdc4c472"
	 xmlns="http://www.w3.org/2000/svg" xmlns:xlink="http://www.w3.org/1999/xlink" x="0px" y="0px" viewBox="0 0 648.6 736.7"
	 style="enable-background:new 0 0 648.6 736.7;" xml:space="preserve">
<style type="text/css">
	.st0{fill:#E6E6E6;}
	.st1{fill:#E7E514;}
	.st2{fill:#3F3D56;}
	.st3{fill:#DEC225;}
	.st4{fill:#FFFFFF;}
	.st5{fill:#F7C812;}
	.st6{fill:#A0616A;}
	.st7{fill:#2F2E41;}
</style>
<ellipse transform="matrix(1.604953e-03 -1 1 1.604953e-03 -396.4378 1065.2493)" class="st0" cx="335.3" cy="731.2" rx="5.5" ry="98.1"/>
<path class="st1" d="M322.9,533.9c-138.4,0-250.7-112.2-250.7-250.7S184.4,32.5,322.9,32.5s250.7,112.2,250.7,250.7
	c0,66.5-26.4,130.2-73.4,177.3C453.2,507.6,389.4,534.1,322.9,533.9z M322.9,34.5c-137.1,0-248.7,111.6-248.7,248.7
	s111.6,248.7,248.7,248.7c137.1,0,248.7-111.6,248.7-248.7S460,34.5,322.9,34.5z"/>
<rect x="163.9" y="291.3" class="st2" width="19" height="65.9"/>
<polygon class="st2" points="195.5,344.8 149.2,289.7 56.3,290.6 0,345.4 1.1,346.2 0.7,346.2 0.7,460.3 195.4,460.3 195.4,346.2 
	"/>
<polygon class="st3" points="149.3,289.8 91.5,357.6 91.5,460.3 195.4,460.3 195.4,344.7 "/>
<rect x="133.2" y="403.5" class="st2" width="21.2" height="18.8"/>
<rect x="133.2" y="371.1" class="st2" width="21.2" height="18.5"/>
<rect x="133.2" y="403.5" class="st4" width="21.2" height="18.8"/>
<rect x="133.2" y="371.1" class="st4" width="21.2" height="18.5"/>
<rect x="38.9" y="398.5" class="st2" width="21.2" height="18.8"/>
<rect x="38.9" y="366.1" class="st2" width="21.2" height="18.5"/>
<rect x="38.9" y="398.5" class="st4" width="21.2" height="18.8"/>
<rect x="38.9" y="366.1" class="st4" width="21.2" height="18.5"/>
<rect x="465.7" y="1.6" class="st2" width="19" height="65.9"/>
<polygon class="st2" points="453.2,56.5 453.2,236.6 647.9,236.6 647.9,56.5 647.5,56.5 648.6,55.7 592.3,0.8 499.4,0 453.1,55.1 
	"/>
<polygon class="st5" points="453.2,55 453.2,236.6 557.1,236.6 557.1,67.9 499.3,0.1 "/>
<rect x="494.2" y="113.8" class="st2" width="21.2" height="18.8"/>
<rect x="494.2" y="81.3" class="st2" width="21.2" height="18.5"/>
<rect x="494.2" y="113.8" class="st4" width="21.2" height="18.8"/>
<rect x="494.2" y="81.3" class="st4" width="21.2" height="18.5"/>
<rect x="588.5" y="108.8" class="st2" width="21.2" height="18.8"/>
<rect x="588.5" y="76.4" class="st2" width="21.2" height="18.5"/>
<rect x="588.5" y="108.8" class="st4" width="21.2" height="18.8"/>
<rect x="588.5" y="76.4" class="st4" width="21.2" height="18.5"/>
<rect x="494.2" y="179.8" class="st4" width="21.2" height="18.8"/>
<rect x="494.2" y="147.3" class="st4" width="21.2" height="18.5"/>
<rect x="588.5" y="174.8" class="st4" width="21.2" height="18.8"/>
<rect x="588.5" y="142.4" class="st4" width="21.2" height="18.5"/>
<circle class="st6" cx="334.4" cy="180" r="30.6"/>
<path class="st6" d="M303,235.4l52.1-0.8c-4.5-12.3-6.4-23.9-3.3-33.9l-39.7-4.1C317.5,209.5,314.4,222.4,303,235.4z"/>
<path class="st6" d="M257.5,440.4l8.6,23.1c2.7,7.2-1,15.3-8.2,18c-1,0.4-2.1,0.7-3.2,0.8l0,0c-7.7,0.9-14.6-4.5-15.6-12.2
	c-0.1-0.7-0.1-1.5-0.1-2.2l1-26.6l7.4-136.4l30.6,9.1L257.5,440.4z"/>
<polygon class="st7" points="289.8,696.7 314.6,694.2 336.9,477.6 368.3,698.3 391.5,697.5 397.3,455.3 286.5,455.3 "/>
<path class="st7" d="M370.8,168.4c0,0-8.3,18.2-14.1,19s-15.7,9.9-14.1,14.1s0.8,16.5-15.7,14.9s-15.7-3.3-15.7-3.3
	s-26.5-50.4,0.8-63.7S363.4,146.1,370.8,168.4z"/>
<path class="st7" d="M392.7,685.7l-1,20.9c0,0,15.1,23.6-3.7,23.6c-0.2,0,0.2,0,0,0c-13.7,0-26,6.1-24.4-7.5l2.3-19.1l4-20.9
	L392.7,685.7z"/>
<path class="st7" d="M290,685.7l1,20.9c0,0-15.1,23.6,3.7,23.6c0.2,0-0.2,0,0,0c13.7,0,26,6.1,24.4-7.5l-2.3-19.1l-4-20.9L290,685.7
	z"/>
<path class="st0" d="M277.4,465.2l123.2-5.8c-23-73.7-23.1-134,5.8-189.6c0-11.9-7.1-22.6-18-27.3l-35.8-15.4l-45.5,2.5l-30,16.5
	c-12,6.6-19.2,19.5-18.5,33.1C284.9,341.9,286.4,403.7,277.4,465.2z"/>
<path class="st0" d="M299.7,321.3l-68.6-11.6l11.3-28.1c8-20,24.4-35.4,44.8-42.4l6.8-2.3L299.7,321.3z"/>
<path class="st6" d="M514.9,258.2l21.1-8.8c8.1-3.4,12-12.7,8.6-20.8c-0.3-0.8-0.8-1.6-1.2-2.4l0,0c-4.7-7.4-14.5-9.7-22-5
	c-1.3,0.8-2.6,1.9-3.6,3.1l-15.7,18.3l-61.4,44.1L399,269.4l-5,34.6l52.2,13.6L514.9,258.2z"/>
<path class="st0" d="M403.6,317.4l34-32l-9-11c-8-20-26.5-28.2-46.9-35.1l-6.8-2.3l-5.3,54.4L403.6,317.4z"/>
</svg>
