<?xml version="1.0" encoding="utf-8"?>
<!-- Generator: Adobe Illustrator 25.2.0, SVG Export Plug-In . SVG Version: 6.00 Build 0)  -->
<svg version="1.1" id="e5378a26-042d-4a36-80f1-957b4ecc48ee"
	 xmlns="http://www.w3.org/2000/svg" xmlns:xlink="http://www.w3.org/1999/xlink" x="0px" y="0px" viewBox="0 0 840.5 757.8"
	 style="enable-background:new 0 0 840.5 757.8;" xml:space="preserve">
<style type="text/css">
	.st0{fill:#191721;}
	.st1{fill:#F97B26;}
	.st2{fill:#FFFFFF;}
	.st3{fill:#3F3D56;}
	.st4{fill:#A0616A;}
	.st5{fill:#2F2E41;}
	.st6{fill:#E6E6E6;}
</style>
<polygon class="st0" points="534.3,438.6 418.3,300.6 185.4,302.7 44.2,440.3 47,442.2 46,442.2 46,728.3 533.9,728.3 533.9,442.2 
	"/>
<polygon class="st1" points="418.4,300.9 273.5,470.8 273.5,728.3 533.9,728.3 533.9,438.5 "/>
<rect x="378" y="585.9" class="st2" width="53.2" height="47"/>
<rect x="378" y="504.5" class="st2" width="53.2" height="46.3"/>
<rect x="141.6" y="573.4" class="st2" width="53.2" height="47"/>
<rect x="141.6" y="492.1" class="st2" width="53.2" height="46.3"/>
<rect y="727.4" class="st3" width="840.5" height="2"/>
<polygon class="st4" points="713.9,695.8 717.9,715.8 697.9,719.8 700.9,694.8 "/>
<polygon class="st4" points="776.9,691.8 771.9,716.8 747.9,716.8 757.9,686.8 "/>
<path class="st5" d="M798.9,517.8l4,27l-5,59l-4,22l-17,72c0,0-19,0-22-8l5-41c0,0,4-33,3-37s-16-68-16-68s-22,101-25,110
	s-7,48-7,48s-17,3-18,0s-2-74-2-85s2-17,2-19s-7.9-97.5-7.9-97.5L798.9,517.8z"/>
<path class="st5" d="M757.9,711.8c0,0,5,1,8,0s0-7,0-7h11c0,0,12,27,17,29s21,24,2,24c-11.7-0.2-23.2-3.6-33-10c0,0-2-9-11-10
	s-15-12-15-12l13-24C749.9,701.8,752.9,712.8,757.9,711.8z"/>
<path class="st5" d="M710.9,710.8c0,0-2,4-4,2s-4-7-4-7s-6-3-7,0s-5,19-7,21s-23,23-2,27s25-5,25-5s-3-5,3-7s7-9,7-9l-4-30
	C717.9,702.8,713.9,712.8,710.9,710.8z"/>
<path class="st4" d="M821.9,447.8l3,52c0,0,14,33-5,32s-7-33-7-33l-18.6-46.4L821.9,447.8z"/>
<path class="st4" d="M667.9,432.8l-3,52c0,0-14,33,5,32s7-33,7-33l18.6-46.4L667.9,432.8z"/>
<circle class="st4" cx="747.9" cy="293.8" r="26"/>
<path class="st4" d="M768.4,304.3c0,0-7,28,7,35s-44,17-48,0l2-8c0,0,8-10,6-19L768.4,304.3z"/>
<path d="M752.9,339.8c0,0-17.3,1.6-22.6-9.7c0,0-40.4,2.7-49.4,39.7l15,96c0,0-16,28-14,31c0,0-10,28,82,29l40-2
	c0.5-5.7,0.2-11.4-1-17c-2-9-13-72-13-72s30-47,27-54s-7.8-34.6-46.4-45.8C770.5,335,769.9,340.8,752.9,339.8z"/>
<path d="M803.9,363.8l13,17c0,0,13,71,9,72s-28,9-32,6s-22-62-22-62L803.9,363.8z"/>
<path d="M697.9,358.8l-17,11c0,0-25,70-18,73s46,1,46,1L697.9,358.8z"/>
<path class="st5" d="M776.3,270.6c0,0-9-19.5-26.3-15c-17.3,4.5-27,11.3-27.8,18c-0.8,6.8,0.4,16.9,0.4,16.9s1.9-13.9,13.9-10.9
	c6.4,1.6,14.7,1.7,21.1,1.5c5.1-0.2,9.4,3.7,9.6,8.8c0,0.2,0,0.3,0,0.5l-0.3,21.5C766.9,311.8,791.9,295.8,776.3,270.6z"/>
<path class="st6" d="M653.7,278.1H300.5c-3.6,0-6.5-2.9-6.5-6.5V109.4c0-3.6,2.9-6.5,6.5-6.5h353.2c3.6,0,6.5,2.9,6.5,6.5v162.2
	C660.2,275.2,657.3,278.1,653.7,278.1z M300.5,105.5c-2.2,0-3.9,1.8-3.9,3.9v162.2c0,2.2,1.8,3.9,3.9,3.9h353.2
	c2.2,0,3.9-1.8,3.9-3.9V109.4c0-2.2-1.8-3.9-3.9-3.9H300.5z"/>
<circle class="st1" cx="352.8" cy="160.3" r="26.6"/>
<path class="st6" d="M414.3,142.6c-2.5,0-4.4,2-4.4,4.4s2,4.4,4.4,4.4c0,0,0,0,0,0h209.3c2.5,0,4.4-2,4.4-4.4c0-2.5-2-4.4-4.4-4.4
	H414.3z"/>
<path class="st6" d="M414.3,169.2c-2.5,0-4.4,2-4.4,4.4s2,4.4,4.4,4.4c0,0,0,0,0,0h90.1c2.5,0,4.4-2,4.4-4.4s-2-4.4-4.4-4.4
	c0,0,0,0,0,0H414.3z"/>
<path class="st6" d="M332.4,211.8c-3.4,0-6.1,2-6.1,4.4s2.7,4.4,6.1,4.4h288.8c3.4,0,6.1-2,6.1-4.4s-2.7-4.4-6.1-4.4H332.4z"/>
<path class="st6" d="M332.4,238.4c-3.4,0-6.1,2-6.1,4.4s2.7,4.4,6.1,4.4h288.8c3.4,0,6.1-2,6.1-4.4s-2.7-4.4-6.1-4.4H332.4z"/>
<circle class="st1" cx="590.1" cy="47.4" r="47.4"/>
<polygon class="st1" points="590.1,124.4 575.3,98.7 560.5,73.1 590.1,73.1 619.7,73.1 604.9,98.7 "/>
<circle class="st2" cx="590.5" cy="47.1" r="17"/>
<ellipse class="st4" cx="768.9" cy="293.8" rx="4" ry="5"/>
</svg>
